- 
http://www.Speed.Cd 
       
http://www.Speed.Cd       the fast  and The Hottest Private Tracker on the net

(((--Registration will be open on june every weekend--)))

Please Seed back to make the speed Faster!!!

------------------nfo--------------------------
-Encoded By .......:UnKnOwN                                                     Release Date ......... 2011
Runtime ..........:1:40                                                        Source       ......... Russian/NoGroup
IMDb URL .........:http://www.imdb.com/title/tt1591095/                        File Type    ......... Single Xvid
Language .........:English                                                     PS3 Compatible ....... Get a XBOX
File Size ........:922mb                                                       Genre        ......... Thriller/Fantasy


Video
ID                               : 0
Format                           : MPEG-4 Visual
Format profile                   : Advanced Simple@L5
Format settings, BVOP            : Yes
Format settings, QPel            : No
Format settings, GMC             : No warppoints
Format settings, Matrix          : Custom
Codec ID                         : XVID
Codec ID/Hint                    : XviD
Duration                         : 1h 39mn
Bit rate                         : 1 213 Kbps
Width                            : 676 pixels
Height                           : 310 pixels
Display aspect ratio             : 2.2:1
Frame rate                       : 25.000 fps
Color space                      : YUV
Chroma subsampling               : 4:2:0
Bit depth                        : 8 bits
Scan type                        : Progressive
Bits/(Pixel*Frame)               : 0.232
Stream size                      : 867 MiB (94%)
Writing library                  : XviD 1.2.1 (UTC 2008-12-04)

Audio
ID                               : 1
Format                           : MPEG Audio
Format version                   : Version 1
Format profile                   : Layer 3
Mode                             : Joint stereo
Mode extension                   : MS Stereo
Codec ID                         : 55
Codec ID/Hint                    : MP3
Duration                         : 1h 39mn
Bit rate mode                    : Constant
Bit rate                         : 64.0 Kbps
Channel(s)                       : 2 channels
Sampling rate                    : 44.1 KHz
Stream size                      : 45.8 MiB (5%)
Alignment                        : Aligned on interleaves
Interleave, duration             : 26 ms (0.65 video frame)
Interleave, preload duration     : 522 ms
                

                                                                    SYSPNOSIS
                                  A nerd in a green suit fights an evil monster who sounds like jabba the hut on meth.   


                                                                   RELEASE INFO
                                    
                              Made about 250 cuts for sync so adjusted colors differently for majority of dark and bright scenes,fixed colors
                              the russian subs were annoying me so i blurred them and hardcoded english subs lots annd lots of work done not 
                              gonna go on and on about it.For the cam lovers enjoy for the critics waiting for the lovely comments,audio is hollow/tinny
                              and whatever other knights of the round table comparisons you make to cam audio,or the best one ts is around the corner
                              well guess what bud so is your g/f and i bet she comes quicker then the ts(: 2 samples dark and light enjoy.